<?xml version="1.0" encoding="utf-8"?>
<!-- Generator: Adobe Illustrator 21.1.0, SVG Export Plug-In . SVG Version: 6.00 Build 0)  -->
<svg version="1.1" id="Layer_1" xmlns="http://www.w3.org/2000/svg" xmlns:xlink="http://www.w3.org/1999/xlink" width="200" height="203"
	 viewBox="0 0 200 203" style="enable-background:new 0 0 200 203;" xml:space="preserve">
<style type="text/css">
	.st0{fill:#009ADA;}
	.st1{fill:#FFFFFF;}
</style>
<g>
	<g>
		<path class="st0" d="M23,47c2.2,1.8,4.6,2.2,6.4-0.1c1.8-2.3,0.9-4.5-1.3-6.3l-5.4-4.3L21.4,38l5,4.1c1.1,0.9,2.6,2.2,1.4,3.7
			c-1.1,1.4-2.8,0.2-3.9-0.7L19,41l-1.3,1.7L23,47z"/>
		<path class="st0" d="M29.4,35.1L28,36.6l5.4,5.2l1.4-1.5l-2.7-2.6c-0.6-0.6-1.7-1.6-0.8-2.5c0.8-0.8,1.6,0,2.3,0.6l2.9,2.8
			l1.4-1.5L34.5,34c-1.3-1.2-2.7-1.8-4-0.4c-0.5,0.5-0.8,1.2-0.6,2l0,0L29.4,35.1z"/>
		<path class="st0" d="M36.2,28.7L34.7,30l5,5.6l1.5-1.4L36.2,28.7z M32.5,26c-0.5,0.4-0.5,1.2,0,1.8c0.5,0.5,1.2,0.6,1.7,0.1
			c0.5-0.4,0.5-1.2,0-1.8C33.8,25.7,33,25.6,32.5,26z"/>
		<polygon class="st0" points="39.7,25.9 37.9,27.2 45.1,31.4 46,30.8 44,22.7 42.2,24 43.6,28.3 		"/>
		<path class="st0" d="M53.3,21.6l-0.1-0.2c-1.2-1.9-3.1-2.9-5-1.7c-2,1.2-2,3.4-0.8,5.3c1.2,1.9,3.2,2.6,5.1,1.4
			c1.3-0.8,1.9-2.2,1.5-3.7l-1.8,0.7c0.1,0.7,0,1.2-0.6,1.6c-0.9,0.6-1.8-0.2-2.3-1L53.3,21.6z M48.7,22.9c-0.3-0.7-0.3-1.6,0.4-2
			c0.7-0.4,1.5,0,1.9,0.6L48.7,22.9z"/>
		<path class="st0" d="M55.4,15.9l-1.8,0.9l3.3,6.8l1.8-0.9l-1.5-3c-0.5-1-1-2.3,0.3-2.9c0.3-0.1,0.6-0.2,0.9-0.1l-0.6-1.9
			c-0.3,0-0.6,0.1-0.8,0.2c-0.7,0.3-1.1,0.9-1.1,1.7l0,0L55.4,15.9z"/>
		<path class="st0" d="M64.1,12.6c-0.7-0.3-1.7-0.1-2.4,0.1c-1.2,0.5-1.7,1.8-1.2,3.1c0.5,1.1,1.3,1.3,2.1,1.3
			c0.8,0,1.5-0.1,1.7,0.5c0.2,0.5,0,0.9-0.5,1.1c-0.6,0.2-1.2,0-1.7-0.2L61.7,20c0.9,0.5,1.9,0.6,2.8,0.2c1.4-0.6,2.2-2,1.6-3.5
			c-0.5-1.2-1.4-1.4-2.2-1.5c-0.8,0-1.5,0.1-1.8-0.4c-0.1-0.3,0.1-0.7,0.4-0.8c0.4-0.2,0.8-0.1,1.2,0.1L64.1,12.6z"/>
		<path class="st0" d="M68.4,10.5l-1.9,0.7l2.4,7.1l1.9-0.7L68.4,10.5z M66,6.6c-0.6,0.2-1,0.9-0.7,1.6c0.2,0.7,0.9,1,1.6,0.8
			c0.6-0.2,1-0.9,0.7-1.6C67.4,6.8,66.7,6.4,66,6.6z"/>
		<polygon class="st0" points="73.6,10.7 74.8,10.4 74.3,8.7 73.1,9 72.4,6.6 70.4,7.2 71.2,9.6 70.5,9.8 71,11.5 71.7,11.3 
			73.4,16.8 75.3,16.2 		"/>
		<polygon class="st0" points="79.7,14 78.5,19.5 80.6,19.1 83.3,6.7 81.1,7.2 80.2,11.7 77.7,7.9 75.4,8.4 		"/>
		<path class="st0" d="M94.4,5.4c-2.2,0.1-3.7,1.8-3.6,4.1c0.1,2.3,1.6,3.9,3.9,3.9c2.2-0.1,3.7-1.8,3.6-4.1
			C98.3,7,96.7,5.3,94.4,5.4z M94.5,7.3c1,0,1.7,1,1.8,2.1c0,1-0.6,2.1-1.6,2.2c-1,0-1.7-1-1.8-2C92.9,8.5,93.5,7.4,94.5,7.3z"/>
		<path class="st0" d="M102.7,7.4l1.6,0.1l0.1-1.8l-1.6-0.1l0.1-1.9c0-0.6,0-1.9,0.9-1.8c0.3,0,0.6,0.1,0.8,0.3l0.1-1.9
			c-0.3-0.2-0.6-0.3-1-0.3c-2-0.1-2.7,1.5-2.8,3.3l-0.1,2.2l-0.7,0l-0.1,1.8l0.7,0l-0.2,5.7l2,0.1L102.7,7.4z"/>
		<path class="st0" d="M119.4,3.8c-0.7-0.5-1.5-0.9-2.3-1c-3.2-0.5-5.8,2-6.3,5.3c-0.5,3.1,1.3,6.3,4.4,6.7c0.9,0.1,1.7,0,2.6-0.3
			l0.4-2.6c-0.7,0.6-1.7,1-2.6,0.8c-2-0.3-2.9-2.4-2.6-4.3c0.3-2,1.8-3.7,3.8-3.4c0.9,0.1,1.7,0.7,2.2,1.6L119.4,3.8z"/>
		<path class="st0" d="M128.8,10.3l-1.9-0.6l-0.2,0.7c-0.3-0.7-0.9-1.3-1.6-1.5c-2-0.6-3.7,0.9-4.3,2.9c-0.6,1.9,0,4.2,2,4.8
			c0.7,0.2,1.5,0.1,2.1-0.3l0,0l-0.2,0.7l1.9,0.6L128.8,10.3z M123.8,14.9c-1-0.3-1.3-1.5-1-2.5c0.3-1,1.2-1.8,2.2-1.5
			c1,0.3,1.3,1.5,1,2.5C125.7,14.3,124.8,15.2,123.8,14.9z"/>
		<path class="st0" d="M133.7,11.9l-1.9-0.8l-4.3,10.7l1.9,0.8l1.7-4.4l0,0c0.2,0.7,0.7,1.3,1.4,1.6c2,0.8,3.8-0.6,4.6-2.5
			c0.7-1.8,0.3-4.1-1.6-4.9c-0.7-0.3-1.5-0.2-2.2,0.1L133.7,11.9z M132.9,17.9c-1-0.4-1.2-1.6-0.8-2.6c0.4-0.9,1.4-1.7,2.3-1.3
			c1,0.4,1.2,1.6,0.8,2.6C134.8,17.5,133.8,18.3,132.9,17.9z"/>
		<path class="st0" d="M144.7,21.7l0.1-0.2c1.1-2,1-4.1-1.1-5.2c-2-1.1-3.9,0-5,2c-1.1,2-0.6,4.1,1.3,5.1c1.3,0.7,2.8,0.5,4-0.6
			l-1.5-1.2c-0.5,0.4-1.1,0.6-1.7,0.3c-0.9-0.5-0.7-1.6-0.3-2.4L144.7,21.7z M141.2,18.4c0.5-0.6,1.2-1.1,1.9-0.7
			c0.7,0.4,0.8,1.2,0.5,2L141.2,18.4z"/>
		<polygon class="st0" points="157.5,22.7 159.3,24 160.4,22.4 155.1,18.5 154,20.1 155.7,21.4 150.2,29.2 151.9,30.4 		"/>
		<path class="st0" d="M161.7,28.3c-1.7-1.4-3.9-1.1-5.4,0.7c-1.5,1.8-1.4,4,0.3,5.5c1.7,1.4,3.9,1.1,5.4-0.6
			C163.5,32,163.4,29.7,161.7,28.3z M160.5,29.8c0.8,0.7,0.6,1.9-0.1,2.7c-0.6,0.8-1.8,1.2-2.6,0.5c-0.8-0.7-0.6-1.9,0.1-2.7
			C158.5,29.5,159.7,29.1,160.5,29.8z"/>
		<polygon class="st0" points="167.4,33.9 165.9,32.2 162.5,39.9 163.3,40.6 167.8,38.7 165.5,43 166.2,43.7 174,40.9 172.5,39.3 
			168.3,41.2 170.5,36.8 169.8,36.1 165.3,37.9 		"/>
		<path class="st0" d="M176.6,44.6l-1.2-1.6l-6.1,4.4l1.2,1.6l3-2.2c0.7-0.5,1.9-1.4,2.6-0.4c0.7,0.9-0.3,1.6-1,2.1l-3.2,2.3
			l1.2,1.6l3.7-2.7c1.4-1,2.2-2.3,1.1-3.9c-0.4-0.6-1.1-1-1.8-1l0,0L176.6,44.6z"/>
		<path class="st0" d="M178.5,58c0.5,0.8,1.6,1.1,2.5,0.6c0.9-0.5,1.2-1.6,0.8-2.4c-0.5-0.9-1.6-1.1-2.5-0.6
			C178.4,56.1,178.1,57.2,178.5,58z"/>
		<path class="st0" d="M188.5,65.7l-0.8-1.9l-7,2.8l0.8,1.9L188.5,65.7z M192.2,63.1c-0.3-0.6-1-0.9-1.6-0.6c-0.7,0.3-1,1-0.7,1.6
			c0.3,0.6,1,0.9,1.6,0.6C192.1,64.5,192.5,63.7,192.2,63.1z"/>
		<polygon class="st0" points="188.4,71.8 183.4,73.4 184.1,75.4 189.1,73.8 196.1,75.2 195.3,72.8 190.9,72 194.1,69 193.3,66.6 		
			"/>
		<path class="st0" d="M192.7,78.1l-4.3,0.9c-2.1,0.5-3,1.7-2.6,3.8c0.4,2.1,1.8,2.9,3.9,2.4l4.3-0.9l-0.4-2l-4,0.8
			c-0.8,0.2-1.9,0.3-2.1-0.7c-0.2-1,0.8-1.4,1.6-1.5l4-0.8L192.7,78.1z"/>
		<path class="st0" d="M194.9,89.6l-0.2-2l-7.5,0.9l0.2,2l3.7-0.5c0.9-0.1,2.3-0.3,2.5,0.9c0.1,1.1-1,1.2-1.9,1.3l-3.9,0.5l0.2,2
			l4.6-0.6c1.7-0.2,3.1-0.9,2.8-2.8c-0.1-0.7-0.4-1.4-1.2-1.7l0,0L194.9,89.6z"/>
		<path class="st0" d="M195.6,99.5l-0.1-2l-7.5,0.3l0.1,2L195.6,99.5z M200,98.3c0-0.7-0.6-1.2-1.3-1.2c-0.7,0-1.3,0.6-1.2,1.2
			c0,0.7,0.6,1.2,1.3,1.2C199.5,99.5,200,99,200,98.3z"/>
		<polygon class="st0" points="195.7,104 195.7,101.8 188,104.8 187.9,105.8 195.5,109.4 195.6,107.2 191.4,105.6 		"/>
		<path class="st0" d="M190.3,117.7l0.3,0c2.2,0.3,4.2-0.5,4.5-2.8c0.3-2.3-1.3-3.7-3.5-4c-2.3-0.3-4.1,0.8-4.4,3
			c-0.2,1.5,0.5,2.8,1.9,3.5l0.6-1.8c-0.6-0.4-0.9-0.8-0.8-1.5c0.1-1,1.3-1.2,2.2-1.1L190.3,117.7z M192.3,113.3
			c0.8,0.2,1.4,0.8,1.3,1.6c-0.1,0.8-0.9,1.1-1.7,1.1L192.3,113.3z"/>
		<path class="st0" d="M192.4,125.2c0.6-0.5,1.1-1.3,1.2-2.1c0.3-1.3-0.5-2.4-1.9-2.7c-1.2-0.3-1.8,0.4-2.2,1
			c-0.5,0.6-0.8,1.3-1.4,1.2c-0.5-0.1-0.7-0.5-0.6-1c0.1-0.6,0.6-1,1.2-1.3l-1-1.2c-0.9,0.4-1.5,1.3-1.7,2.2c-0.3,1.5,0.4,2.9,2,3.3
			c1.3,0.3,1.9-0.3,2.4-1c0.5-0.6,0.8-1.3,1.3-1.2c0.4,0.1,0.6,0.5,0.5,0.8c-0.1,0.4-0.4,0.7-0.7,0.9L192.4,125.2z"/>
		<path class="st0" d="M191.5,130.3l0.6-1.9l-7.2-2.2l-0.6,1.9L191.5,130.3z M196,130.6c0.2-0.6-0.2-1.3-0.9-1.5
			c-0.7-0.2-1.4,0.1-1.6,0.8c-0.2,0.6,0.2,1.3,0.9,1.5C195.1,131.6,195.8,131.2,196,130.6z"/>
		<polygon class="st0" points="188.2,134.7 187.8,135.9 189.5,136.4 189.9,135.3 192.3,136.1 193,134.1 190.5,133.3 190.8,132.7 
			189.1,132.1 188.8,132.7 183.4,130.9 182.8,132.8 		"/>
		<path class="st0" d="M193.6,140.9l-11.9-5.2l-0.8,1.9l3.4,1.5c0.8,0.4,2.1,1,1.6,2.1c-0.5,1-1.5,0.5-2.3,0.2l-3.6-1.6l-0.8,1.9
			l4.2,1.9c1.6,0.7,3.1,0.8,3.9-1c0.3-0.7,0.3-1.4,0-2.1l0,0l5.6,2.5L193.6,140.9z"/>
		<path class="st0" d="M183.4,149.4l1-1.8l-6.6-3.6l-1,1.8L183.4,149.4z M187.8,150.6c0.3-0.6,0.1-1.3-0.5-1.7
			c-0.6-0.3-1.4-0.1-1.7,0.4c-0.3,0.6-0.1,1.3,0.5,1.7C186.7,151.4,187.4,151.2,187.8,150.6z"/>
		<polygon class="st0" points="172.6,154.5 169.8,149.6 168.5,151.4 174.9,162.3 176.2,160.5 173.8,156.5 178.2,157.6 179.6,155.7 
					"/>
		<path class="st0" d="M168.5,169.4l1.4-1.5l-0.5-0.5c0.8,0,1.5-0.3,2-0.8c1.4-1.5,0.7-3.7-0.7-5.1c-1.5-1.4-3.8-1.8-5.2-0.3
			c-0.5,0.5-0.8,1.3-0.6,2.1l0,0l-0.5-0.5l-1.4,1.5L168.5,169.4z M166.6,162.8c0.7-0.8,1.9-0.5,2.7,0.2c0.7,0.7,1.1,1.9,0.4,2.7
			c-0.7,0.8-1.9,0.5-2.7-0.2C166.3,164.8,165.9,163.6,166.6,162.8z"/>
		<path class="st0" d="M162.5,174.5c0.8,0,1.7-0.5,2.2-1c1-0.9,1-2.3,0-3.3c-0.8-0.9-1.6-0.7-2.4-0.5c-0.7,0.2-1.4,0.6-1.8,0.1
			c-0.3-0.4-0.3-0.8,0.1-1.1c0.4-0.4,1.1-0.5,1.7-0.4l-0.2-1.6c-1-0.2-2,0.1-2.7,0.8c-1.1,1-1.4,2.6-0.2,3.8c0.9,1,1.8,0.8,2.5,0.6
			c0.8-0.2,1.4-0.6,1.8-0.2c0.2,0.3,0.2,0.7-0.1,0.9c-0.3,0.3-0.7,0.4-1.1,0.3L162.5,174.5z"/>
		<path class="st0" d="M152.7,177.6l0.2,0.2c1.4,1.8,3.3,2.6,5.2,1.2c1.8-1.4,1.6-3.5,0.3-5.3c-1.4-1.8-3.5-2.3-5.2-0.9
			c-1.2,0.9-1.7,2.3-1.1,3.8l1.7-0.9c-0.1-0.6-0.1-1.2,0.5-1.6c0.8-0.6,1.8,0,2.3,0.7L152.7,177.6z M157.2,175.9
			c0.4,0.7,0.5,1.5-0.2,2c-0.6,0.5-1.4,0.2-2-0.4L157.2,175.9z"/>
		<polygon class="st0" points="150.3,183.2 150.3,183.2 152.8,187.4 154.6,186.3 148.6,176.4 146.8,177.5 149.5,182 149.5,182 
			143.8,179.4 141.4,180.8 148.4,183.8 147.7,190.5 149.9,189.2 		"/>
		<path class="st0" d="M136.9,191.3l1.8-0.9l-0.3-0.6c0.7,0.3,1.5,0.3,2.2,0c1.8-0.9,2.1-3.2,1.2-5c-0.9-1.8-2.8-3.1-4.7-2.2
			c-0.7,0.3-1.2,0.9-1.3,1.7l0,0l-0.3-0.6l-1.8,0.9L136.9,191.3z M137.5,184.5c0.9-0.5,2,0.3,2.4,1.2s0.3,2.2-0.6,2.6
			c-0.9,0.4-2-0.2-2.4-1.2C136.5,186.2,136.6,184.9,137.5,184.5z"/>
		<path class="st0" d="M131.4,193.3l1.9-0.6l-3.7-10.9l-1.9,0.6l1.5,4.5l0,0c-0.6-0.5-1.4-0.5-2.1-0.3c-2,0.7-2.5,2.9-1.8,4.9
			c0.6,1.9,2.4,3.4,4.3,2.7c0.7-0.2,1.3-0.8,1.6-1.5L131.4,193.3z M128.2,188.2c1-0.3,1.9,0.5,2.3,1.5c0.3,1,0.1,2.2-0.9,2.5
			c-1,0.3-1.9-0.5-2.3-1.5C126.9,189.8,127.2,188.6,128.2,188.2z"/>
		<path class="st0" d="M116.4,197.4l2-0.4l-0.1-0.7c0.6,0.5,1.4,0.7,2.1,0.5c2-0.4,2.8-2.6,2.3-4.6c-0.4-2-2-3.7-4.1-3.3
			c-0.7,0.2-1.4,0.6-1.7,1.3l0,0l-0.1-0.7l-2,0.4L116.4,197.4z M118.6,190.9c1-0.2,1.9,0.7,2.1,1.7c0.2,1-0.2,2.2-1.2,2.4
			c-1,0.2-1.9-0.7-2.1-1.7C117.2,192.3,117.6,191.1,118.6,190.9z"/>
		<path class="st0" d="M106.9,192.9c-1,0.1-1.7,1-1.6,2c0.1,1,0.9,1.8,1.9,1.7c1-0.1,1.7-1,1.6-2
			C108.7,193.5,107.9,192.8,106.9,192.9z"/>
		<path class="st0" d="M100,196.1c0.1-2.8-1-5-3.9-5.1c-2.9-0.1-4.1,2-4.2,4.8l-0.2,6.9l2.1,0.1l0.2-6.5c0-1.4,0.2-3.4,2-3.4
			c1.8,0.1,1.9,2.1,1.8,3.5l-0.2,6.5l2.1,0.1L100,196.1z"/>
		<path class="st0" d="M86.3,198.1l2,0.3l1-7.4l-2-0.3l-0.5,3.7c-0.1,0.9-0.3,2.3-1.5,2.1c-1.1-0.2-0.9-1.3-0.8-2.2l0.6-3.9l-2-0.3
			l-0.6,4.5c-0.2,1.7,0.1,3.2,2,3.5c0.7,0.1,1.5-0.1,2-0.7l0,0L86.3,198.1z"/>
		<path class="st0" d="M77.1,196.4l2,0.4l1.6-7.3l-2-0.4L77.1,196.4z M77.1,201c0.7,0.1,1.3-0.3,1.4-1c0.1-0.7-0.3-1.4-0.9-1.5
			c-0.7-0.1-1.3,0.3-1.4,1C76.1,200.1,76.5,200.8,77.1,201z"/>
		<polygon class="st0" points="72.8,195.3 74.9,195.9 74,187.7 73,187.4 67.6,193.7 69.8,194.4 72.4,190.8 		"/>
		<path class="st0" d="M61.3,186.9l-0.1,0.2c-0.8,2.1-0.6,4.2,1.6,5.1c2.1,0.9,3.9-0.4,4.7-2.5s0.2-4.2-1.8-5
			c-1.4-0.6-2.9-0.2-3.9,1l1.6,1c0.5-0.4,1-0.7,1.7-0.4c1,0.4,0.9,1.5,0.6,2.4L61.3,186.9z M65.1,189.9c-0.4,0.7-1.1,1.2-1.8,0.9
			c-0.7-0.3-0.9-1.2-0.7-1.9L65.1,189.9z"/>
		<path class="st0" d="M55.8,188.7l1.8,0.9l3.3-6.7l-1.8-0.9l-1.5,3c-0.5,1-1.2,2.2-2.5,1.5c-0.3-0.1-0.5-0.3-0.6-0.6l-1.1,1.7
			c0.2,0.2,0.4,0.4,0.7,0.5c0.7,0.3,1.4,0.3,2-0.1l0,0L55.8,188.7z"/>
		<path class="st0" d="M47.8,183.6c0.2,0.8,0.9,1.5,1.6,1.9c1.1,0.7,2.5,0.3,3.2-0.9c0.6-1,0.2-1.8-0.2-2.4c-0.4-0.6-1-1.1-0.6-1.7
			c0.3-0.4,0.7-0.5,1.1-0.3c0.5,0.3,0.7,0.9,0.8,1.5l1.5-0.6c-0.1-1-0.7-1.9-1.5-2.4c-1.3-0.8-2.9-0.6-3.8,0.9
			c-0.7,1.1-0.3,1.9,0.1,2.6c0.4,0.7,1,1.2,0.7,1.6c-0.2,0.3-0.6,0.4-0.9,0.2c-0.3-0.2-0.6-0.6-0.7-1L47.8,183.6z"/>
		<path class="st0" d="M43.3,181.3l1.7,1.2l4.3-6.2l-1.7-1.2L43.3,181.3z M41.6,185.5c0.5,0.4,1.3,0.2,1.7-0.3
			c0.4-0.6,0.3-1.3-0.3-1.7c-0.5-0.4-1.3-0.2-1.7,0.3C41,184.3,41.1,185.1,41.6,185.5z"/>
		<polygon class="st0" points="40.5,176.9 39.5,176.2 38.4,177.6 39.4,178.4 37.8,180.4 39.5,181.6 41,179.6 41.6,180 42.6,178.6 
			42.1,178.2 45.5,173.6 43.9,172.4 		"/>
		<path class="st0" d="M34.8,169l-0.2,0.2c-1.5,1.7-2,3.7-0.2,5.3c1.7,1.5,3.8,1,5.3-0.7c1.5-1.7,1.6-3.8,0-5.3
			c-1.1-1-2.6-1.2-4-0.4l1.2,1.5c0.6-0.3,1.2-0.3,1.7,0.2c0.8,0.7,0.3,1.7-0.3,2.4L34.8,169z M37.4,173.1c-0.6,0.5-1.4,0.8-2,0.2
			c-0.6-0.5-0.4-1.4,0-2L37.4,173.1z"/>
		<path class="st0" d="M28.9,168.8l1.4,1.5l5.4-5.2l-1.4-1.5L28.9,168.8z M26.4,172.6c0.5,0.5,1.3,0.5,1.8,0
			c0.5-0.5,0.5-1.3,0.1-1.7c-0.5-0.5-1.2-0.5-1.8,0C26,171.3,25.9,172.1,26.4,172.6z"/>
		<polygon class="st0" points="26.9,164 26.1,163 24.7,164.2 25.6,165.2 23.7,166.9 25,168.4 26.9,166.7 27.4,167.2 28.7,166 
			28.3,165.5 32.5,161.7 31.1,160.1 		"/>
		<polygon class="st0" points="19.3,157 20.5,158.9 25.2,152 24.6,151.1 16.4,152.5 17.6,154.4 22,153.3 		"/>
		<path class="st0" d="M12.1,144.8l0.9,1.8l0.6-0.3c-0.3,0.7-0.3,1.5,0.1,2.2c1,1.8,3.3,1.9,5,1c1.8-1,3-2.9,2-4.8
			c-0.3-0.7-1-1.2-1.7-1.3l0,0l0.6-0.3l-0.9-1.8L12.1,144.8z M18.9,145.1c0.5,0.9-0.2,2-1.1,2.5c-0.9,0.5-2.2,0.4-2.6-0.5
			c-0.5-0.9,0.2-2,1.1-2.5C17.1,144.1,18.4,144.2,18.9,145.1z"/>
		<path class="st0" d="M9.9,139.9l0.8,1.9l7-2.8l-0.8-1.9l-3.4,1.4c-0.8,0.3-2.2,0.9-2.6-0.3c-0.4-1.1,0.7-1.5,1.5-1.8l3.7-1.5
			l-0.8-1.9l-4.3,1.7c-1.6,0.7-2.7,1.7-2,3.5c0.3,0.7,0.8,1.2,1.6,1.4l0,0L9.9,139.9z"/>
		<polygon class="st0" points="6,125.7 6,125.7 1.3,126.7 1.8,128.8 13,126.3 12.6,124.3 7.5,125.4 7.5,125.3 11.8,120.8 
			11.2,118.1 6.1,123.7 0,120.8 0.6,123.4 		"/>
		<path class="st0" d="M2.6,110.7l0.3,2l0.7-0.1c-0.5,0.6-0.8,1.4-0.7,2.1c0.3,2,2.4,3,4.3,2.7c2-0.3,3.9-1.7,3.6-3.8
			c-0.1-0.7-0.5-1.4-1.2-1.8l0,0l0.7-0.1l-0.3-2L2.6,110.7z M8.8,113.5c0.1,1-0.9,1.8-1.9,1.9c-1,0.1-2.2-0.4-2.3-1.4
			c-0.1-1,0.9-1.8,1.9-2C7.5,111.9,8.7,112.4,8.8,113.5z"/>
		<path class="st0" d="M2.2,100.7l0,2l0.7,0c-0.6,0.5-0.9,1.3-0.9,2c0,2,2,3.2,4,3.2c2,0,4-1.3,4-3.4c0-0.7-0.4-1.5-1-1.9l0,0l0.7,0
			l0-2L2.2,100.7z M8.2,104.1c0,1-1.1,1.7-2.1,1.7c-1,0-2.1-0.6-2.1-1.6c0-1,1-1.7,2.1-1.7C7,102.4,8.2,103,8.2,104.1z"/>
		<path class="st0" d="M2.6,95.4l-0.2,2l11.5,0.9l0.2-2l-4.7-0.4l0,0c0.6-0.4,1-1.1,1.1-1.8c0.2-2.1-1.7-3.5-3.8-3.6
			c-2-0.2-4,0.9-4.2,2.9c-0.1,0.8,0.2,1.5,0.8,2L2.6,95.4z M8.5,94.4c-0.1,1-1.2,1.6-2.2,1.5c-1-0.1-2-0.8-2-1.9
			c0.1-1,1.2-1.6,2.2-1.5C7.6,92.6,8.6,93.3,8.5,94.4z"/>
		<path class="st0" d="M4.8,82.9c-0.6,0.5-1.1,1.4-1.2,2.1c-0.3,1.3,0.6,2.4,2,2.7c1.2,0.2,1.8-0.4,2.2-1s0.7-1.3,1.4-1.2
			c0.5,0.1,0.7,0.5,0.6,1c-0.1,0.6-0.6,1-1.1,1.3l1.1,1.2c0.9-0.5,1.5-1.3,1.7-2.2c0.3-1.5-0.5-2.9-2.1-3.2c-1.3-0.2-1.9,0.4-2.4,1
			c-0.5,0.7-0.8,1.3-1.3,1.2c-0.4-0.1-0.6-0.4-0.5-0.8c0.1-0.4,0.4-0.7,0.7-1L4.8,82.9z"/>
		<polygon class="st0" points="7.2,78.4 7.5,77.2 5.7,76.7 5.4,77.9 2.9,77.3 2.5,79.3 4.9,79.9 4.7,80.6 6.5,81 6.7,80.3 
			12.2,81.7 12.7,79.7 		"/>
		<path class="st0" d="M8.4,68.1l-0.6,1.9l0.7,0.2c-0.7,0.3-1.3,0.9-1.5,1.6c-0.6,1.9,0.9,3.7,2.8,4.3c1.9,0.6,4.2,0.1,4.9-1.9
			c0.2-0.7,0.1-1.5-0.3-2.1l0,0l0.7,0.2l0.6-1.9L8.4,68.1z M12.9,73.3c-0.3,1-1.6,1.3-2.5,1c-1-0.3-1.8-1.3-1.5-2.3
			c0.3-1,1.6-1.3,2.5-1C12.4,71.3,13.2,72.3,12.9,73.3z"/>
		<path class="st0" d="M18.5,63.8l0.9-1.8L7.6,56.5l-0.9,1.8l5.6,2.6l0,0c-0.7,0.2-1.4,0.7-1.7,1.4c-0.9,1.9,0.4,3.8,2.2,4.6
			c1.8,0.9,4.2,0.6,5-1.3c0.3-0.7,0.3-1.5,0-2.1l0,0L18.5,63.8z M16.4,64.4c-0.4,0.9-1.7,1.1-2.6,0.6c-0.9-0.4-1.6-1.5-1.2-2.4
			c0.4-0.9,1.7-1.1,2.6-0.6C16.1,62.5,16.8,63.5,16.4,64.4z"/>
		<path class="st0" d="M20.8,54.4c0.5-0.8,0.3-1.9-0.6-2.5c-0.9-0.6-2-0.4-2.5,0.5c-0.5,0.8-0.3,1.9,0.6,2.5
			C19.2,55.4,20.3,55.2,20.8,54.4z"/>
	</g>
	<g>
		<path d="M50.5,44.8h96c0,0,0,37,0,60.7c0,48.7-48,64.9-48,64.9s-48-16.2-48-64.9C50.5,81.9,50.5,44.8,50.5,44.8z"/>
		<path class="st1" d="M145.1,46.2v59.3c0,44.9-41.8,61.7-46.6,63.4c-4.8-1.8-46.6-18.5-46.6-63.4V46.2H145.1z"/>
		<path d="M140.8,105.5c0,39-33.8,55.4-42.4,58.9c-8.6-3.5-42.4-19.9-42.4-58.8V50.5h84.7V105.5z"/>
		<path d="M98.5,162.9c-9.3-3.9-40.9-20.1-40.9-57.3V51.9h81.9v53.6C139.4,142.8,107.8,159,98.5,162.9z"/>
		<path class="st1" d="M98.9,91.8c1.9,0,3,1.4,3,3c0,0.4-0.1,1.2-0.5,1.5h-0.2c0,0-0.1,0-0.1-0.1c0-0.1,0.2-0.4,0.2-0.7
			c0.1-0.3,0.1-0.7,0.1-0.8c0-0.9-0.7-2.4-1.8-2.4h-0.8c-0.1,0-0.2,0.1-0.3,0.2c0.1,0.5,0.6,0.4,0.9,0.7c0.5,0.5,0.7,1.3,0.7,1.7
			c0,0.4-0.3,1.4-1,1.4h-2.5c-0.5,0-0.7-0.9-0.7-1.1c0-0.1-0.1-0.3-0.1-0.4C95.9,93.4,97.1,91.8,98.9,91.8z"/>
		<path class="st1" d="M99.1,89.5c0.4,0,1.4,0.2,1.6,0.5c0.1,0.2,0.4,0.3,0.4,0.4c0,0,0.6,1,0.6,1.3v0.6c-1.1-0.9-1.9-1.2-2.9-1.2
			c-0.9,0-1.7,0.3-2.6,1.1c0-0.1-0.1-0.1-0.1-0.2c0-0.1,0.1-0.3,0.1-0.4C96.7,90.3,97.8,89.5,99.1,89.5z"/>
		<path class="st1" d="M103.4,89.2c2,0.3,4.1,1,6.2,2.1c-0.1,0.1-0.3,0.2-0.4,0.2c-1.6,0.2-3.2,0.4-4.9,0.5
			c-0.4-0.8-1.1-2.5-1.1-2.6S103.4,89.3,103.4,89.2z"/>
		<path class="st1" d="M94.2,89.2l0.6,0.1c-0.6,0.9-1,1.9-1.3,3h-0.9c-1.1,0-4.5-0.6-5.1-0.9C89.7,90.1,92.1,89.6,94.2,89.2z"/>
		<path class="st1" d="M100.9,88.8c0.3,0.1,0.7,0,1,0.1c0.8,0.3,1.5,2,1.5,2.7c0,0.1,0.1,0.3,0.1,0.5c-0.1,0.1-0.1,0.1,0,0.8
			c-0.1,0.6-0.3,1.6-1,2.2c-0.1-1.8-0.3-1.3-0.2-3c0-0.6-0.2-1.4-0.8-2.1c-0.8-0.9-1.4-1-2.3-1c-2.1,0-3.4,1.7-3.4,3.1
			c0,0.1-0.1,0.2-0.1,0.2c0,0.2,0,0.4,0,0.7c-0.1,0.7-0.4,1.3-0.4,2c-0.4,0-0.8-1.3-0.8-1.7c0-0.1-0.1-0.3-0.1-0.5
			c0-1.2,1-3.8,2.1-4L100.9,88.8z"/>
		<path class="st1" d="M90.9,87.8c0.3,0,0.5,1,0.5,1c0,0.4-0.4,0.3-0.8,0.5c-0.5,0.3-1.2,0.4-1.7,0.6c-0.7,0.2-1.4,0.6-2.2,0.9
			c-0.2-0.3-0.5-0.8-0.5-1.1C86.2,89.3,90.7,87.8,90.9,87.8z"/>
		<path class="st1" d="M106.3,87.7c0.3,0,4.9,1.5,4.9,2.1c0,0.2-0.3,0.9-0.5,0.9c-0.1,0-1.3-0.5-2-0.8c-0.8-0.3-1.7-0.5-2.5-0.9
			c-0.2-0.1-0.2-0.3-0.2-0.4C105.9,88.6,106.1,87.7,106.3,87.7z"/>
		<path class="st1" d="M87,87.1c0.2,0.3,0.4,1,0.4,1.1c0,0.2-1.2,0.7-1.5,0.8c-0.1,0-0.5-1-0.5-1.1C85.4,87.6,86.5,87.1,87,87.1z"/>
		<path class="st1" d="M110.3,87c0.2,0,1.6,0.7,1.6,0.9c0,0.1-0.3,0.7-0.5,1.1c-0.1,0-1.7-0.5-1.7-0.9C109.8,87.9,110.2,87,110.3,87
			z"/>
		<path class="st1" d="M99.4,86.7c0.1,0,0.2,0,1.3,0.1c1.6,0.1,3.3,0.4,5,0.9v0.3c0,0.2-0.2,0.9-0.4,0.9c-0.1,0-1.6-0.4-2.3-0.5
			c-0.7-0.1-1.4-0.1-2.1-0.2L99.1,88c-0.1-0.1-0.1-0.1-0.2-0.2v-0.9C99,86.8,99.3,86.7,99.4,86.7z"/>
		<path class="st1" d="M98.4,86.7c0.1,0.2,0.2,0.4,0.2,0.6c0,0.8-0.3,0.8-1.1,0.8h-0.7c-0.9,0-4.4,0.8-4.8,0.8c-0.3,0-0.5-0.7-0.5-1
			c0-0.1,0-0.2,0.1-0.3c0.4-0.1,0.9-0.2,1.3-0.3c1.3-0.3,2.5-0.4,3.8-0.5L98.4,86.7z"/>
		<path class="st1" d="M103,85c0.6,0,6.7,1.4,6.7,1.9c0,0.3-0.4,1-0.5,1.1c-1.2-0.4-2.5-0.8-3.8-1.2c-0.9-0.2-2-0.2-2.9-0.6
			c0.1-0.6,0.1-0.7,0-0.7C102.7,85.4,102.7,85,103,85z"/>
		<path class="st1" d="M94.5,85c0.3,0.3,0.2,0.8,0.2,1.1c0,0.3-0.4,0.3-0.7,0.3c-0.9,0.2-1.9,0.3-2.8,0.6c-1,0.3-2.3,0.8-3.4,1
			c-0.2-0.3-0.4-0.9-0.4-1c0-0.4,1.2-0.7,1.3-0.7C90.5,85.7,92.6,85.2,94.5,85z"/>
		<path class="st1" d="M100.4,84.7c0.1,0,1.2,0.1,1.8,0.2c0.1,0.1,0.2,0.2,0.2,0.3c0,0.1-0.1,0.4-0.1,0.6c0.1,0,0,0.3-0.1,0.5
			c-1.5,0-2-0.2-2.2-0.2h-2.8c-0.1,0-1.3,0.1-1.9,0.2C95.1,86,95,85.6,95,85.3c0-0.1,0-0.3,0.1-0.4c0.6-0.1,1.6-0.2,1.8-0.2H100.4z"
			/>
		<path class="st1" d="M89.9,84c0.1,0,0.2,0,0.2,0.1c0.1,0.3,0.3,0.7,0.3,0.9v0.3l-5.2,1.9c-0.2-0.3-0.4-0.9-0.4-1
			c0-0.2,0.7-0.5,0.8-0.6C85.9,85.4,89,84,89.9,84z"/>
		<path class="st1" d="M107.2,83.9c0.3,0,5.5,1.7,5.5,2.2c0,0.1-0.2,0.7-0.4,0.9c0,0.1-0.1,0.1-0.2,0.1c-0.1,0-2.4-0.9-3.6-1.4
			c-0.5-0.2-1.1-0.3-1.6-0.5c-0.1-0.1-0.2-0.2-0.2-0.3c0-0.1,0.2-0.6,0.3-0.9C107.1,84,107.1,83.9,107.2,83.9z"/>
		<path class="st1" d="M85.6,83.5c0.1,0,0.2,0.1,0.2,0.1c0.1,0.3,0.3,0.8,0.3,0.9c0,0.2-1.4,0.8-1.7,0.9c-0.1-0.1-0.5-0.9-0.5-1.1
			C84,84.1,85.5,83.5,85.6,83.5z"/>
		<path class="st1" d="M111.6,83.3c0.2,0,1.8,0.8,1.8,1c0,0.2-0.3,1-0.5,1c-0.1,0-1.1-0.5-1.7-0.7c-0.1,0-0.1-0.1-0.1-0.2
			c0-0.1,0.2-0.5,0.2-0.6C111.3,83.6,111.5,83.3,111.6,83.3z"/>
		<path class="st1" d="M99.8,82.7c0.1,0,0.9,0,2.1,0.1c0.8,0.1,4.7,0.7,4.7,1.1c0,0.3-0.1,0.8-0.4,1.1c-0.8-0.2-1.7-0.4-2.5-0.5
			c-1.2-0.2-3.6-0.4-3.7-0.4h-0.8c-0.1-0.1-0.2-0.2-0.3-0.3c0-0.1,0.1-0.1,0-0.6C99,82.6,99.4,82.7,99.8,82.7z"/>
		<path class="st1" d="M98.2,82.7c0.1,0,0.2,0.1,0.4,0.1c0,0.1,0.1,0.2,0.1,1.1c-0.1,0.1-0.1,0.1-0.2,0.2h-1c-1.4,0-6.1,0.9-6.4,0.9
			c-0.1-0.3-0.3-0.8-0.3-0.9v-0.4c1.6-0.5,3.4-0.8,5.2-1C96.8,82.8,98,82.7,98.2,82.7z"/>
		<path class="st1" d="M109.3,82.6h0.2c0.1,0,1.5,0.5,1.5,0.7c0,0.2-0.3,1-0.5,1c-0.1,0-0.9-0.3-1.4-0.5c-0.1,0-0.1-0.1-0.1-0.3
			C108.9,83.3,109.2,82.9,109.3,82.6z"/>
		<path class="st1" d="M87.9,82.6c0.2,0,0.4,1,0.4,1.1c0,0.1,0,0.2-0.1,0.2c-0.5,0.2-1.4,0.6-1.5,0.6c-0.2,0-0.5-1-0.5-1.1
			C86.2,83.2,87.8,82.6,87.9,82.6z"/>
		<path class="st1" d="M103.3,81.1h0.4c0.1,0,1,0.2,1.5,0.3c0,0.1,0.1,0,0.1,0.2c0,0.2-0.2,1-0.4,1c-0.1,0-1-0.2-1.5-0.2
			c-0.1,0-0.3-0.2-0.3-0.3C103,82,103.1,81.5,103.3,81.1z"/>
		<path class="st1" d="M94,81.1c0.2,0,0.3,0.9,0.3,1c0,0.6-1.7,0.6-2,0.6c-0.1-0.3-0.2-0.8-0.2-1C92,81.4,93.7,81.1,94,81.1z"/>
		<path class="st1" d="M100.8,80.9c0.2,0,1.9-0.2,1.9,0.5c0,0.1-0.1,0.6-0.1,0.9c-0.1,0.1-0.3,0.1-0.5,0.1c-0.5,0-1,0-1.4-0.2
			c-0.1-0.1-0.1-0.2-0.1-0.4C100.6,81.6,100.7,81.2,100.8,80.9z"/>
		<path class="st1" d="M95.9,80.9h0.6c0.2,0.3,0.2,0.6,0.2,0.8c0,0.1,0,0.2,0,0.3c-0.2,0.2-0.7,0.3-1,0.3h-0.8
			c-0.1-0.3-0.2-0.8-0.2-0.9C94.6,80.9,95.5,80.9,95.9,80.9z"/>
		<path class="st1" d="M109.9,80.6c0.2,0,4.3,1.5,4.3,1.8c0,0.1-0.3,0.7-0.5,1.1c-1.4-0.6-2.8-1.2-4.2-1.7c0,0-0.1,0-0.1-0.1
			C109.4,81.6,109.7,80.6,109.9,80.6z"/>
		<path class="st1" d="M87.4,80.6c0.2,0,0.5,1.1,0.5,1.1c0,0.1-0.1,0.2-0.2,0.2c-0.8,0.3-2.3,0.9-2.4,0.9c-0.1,0-1.2,0.5-1.5,0.6
			c-0.2-0.3-0.5-0.9-0.5-1.1C83.2,82,87.3,80.6,87.4,80.6z"/>
		<path class="st1" d="M101.3,78.9c0.4,0,3.7,0.5,4.2,0.6c0.1,0,0.1,0.1,0.1,0.3c0,0.2-0.1,0.9-0.5,1.1l-4.2-0.6c-0.1-0.7,0-1,0-1.1
			C100.9,78.9,101.1,78.9,101.3,78.9z"/>
		<path class="st1" d="M95.8,78.9c0,0,0.7,0.1,0.7,0.2c0,0.1,0.1,0.7,0.1,0.8c0,0.1-0.1,0.2-0.2,0.3c-1.5,0.1-3,0.3-4.5,0.5
			c-0.1-0.3-0.2-0.9-0.2-1c0-0.1,0-0.2,0.1-0.3C92.4,79.3,95.4,78.9,95.8,78.9z"/>
		<path class="st1" d="M94.5,75.6l8.9,0c0.3-0.1,0.8,0.4,1.1,0.7v0.2H93.3C93.4,75.9,94.1,75.5,94.5,75.6z"/>
		<path class="st1" d="M95.2,74.7l7.2,0c0,0.1,0.4,0.2,0.4,0.4c-0.1,0.1-0.3,0.1-0.4,0.1l-7.6-0.1c-0.1-0.1-0.1-0.1-0.1-0.2
			C94.8,74.7,95,74.8,95.2,74.7z"/>
		<path class="st1" d="M96.2,73.6l5.3,0.1c0.1,0,0.4,0.2,0.4,0.3c0,0.1-0.2,0.2-0.2,0.3l-5.3,0c-0.3-0.1-0.5-0.1-0.5-0.4
			C95.8,73.8,96,73.6,96.2,73.6z"/>
		<path class="st1" d="M97.4,72.5l3.3,0c0.3,0,0.5,0.2,0.5,0.4c0,0.1-0.1,0.3-0.3,0.3l-4,0c-0.1,0-0.4-0.4-0.5-0.5
			C96.6,72.5,97.1,72.5,97.4,72.5z"/>
		<path class="st1" d="M96.4,70.8c1.2,0.1,1.8,0.3,2.6,0.3c0.7,0,1.3-0.2,2.4-0.3v0.2c0,0.1-0.3,0.6-0.4,0.9
			c-0.3,0.1-0.7,0.1-0.8,0.1l-3.2,0c-0.1-0.1-0.1-0.2-0.1-0.2c-0.1-0.3-0.4-0.7-0.4-0.9V70.8z"/>
		<path class="st1" d="M92.8,68.5c0.4,0,1.1,0.6,1,1h-0.3c-0.2,0-1-0.6-1-0.7C92.6,68.6,92.7,68.5,92.8,68.5z"/>
		<path class="st1" d="M94.3,68.5c0.6,0,1.1,1,1.2,1.4c-0.1,0.1-0.1,0.1-0.2,0.1c-0.5,0-1.4-0.9-1.4-1.2
			C94,68.5,94.2,68.5,94.3,68.5z"/>
		<path class="st1" d="M96,68.4c0.6,0,0.7,1.1,0.7,1.3c0,0.1-0.2,0.4-0.3,0.5c-0.3-0.1-0.7-0.9-0.7-1.2C95.7,68.6,95.8,68.4,96,68.4
			z"/>
		<path class="st1" d="M103.6,68.3c0.3,0,0.3,0.2,0.3,0.3c0,0.3-0.7,1-1,1.2h-0.3c-0.1-0.1-0.1,0-0.1-0.2
			C102.5,69.4,103.1,68.3,103.6,68.3z"/>
		<path class="st1" d="M102.2,68.3c0.3,0,0.3,0.2,0.3,0.3c0,0.2-0.7,1.3-1.1,1.3c-0.3,0-0.3-0.2-0.3-0.3
			C101.2,69.4,101.7,68.3,102.2,68.3z"/>
		<path class="st1" d="M100.4,68.3c0.3,0,0.5,0.4,0.5,0.6c0,0.2-0.3,1.3-0.7,1.3c-0.4,0-0.3-0.8-0.3-0.8
			C99.8,69.2,99.8,68.3,100.4,68.3z"/>
		<path class="st1" d="M98.9,68.3c0.5,0,0.5,0.6,0.5,0.8c0,0.2-0.1,1.1-0.5,1.1c-0.5,0-0.5-1.1-0.5-1.2
			C98.5,68.7,98.5,68.3,98.9,68.3z"/>
		<path class="st1" d="M97.4,68.3c0.5,0,0.7,0.6,0.7,0.9c0,0.2-0.2,0.9-0.4,0.9c-0.5,0-0.7-1.2-0.7-1.3C97,68.6,97.1,68.3,97.4,68.3
			z"/>
		<path class="st1" d="M87.8,64.5c0.4,0,0.5,0.7,0.5,0.8c0,1.2-1.5,1.5-2.1,1.5c-1.1,0-3-1.1-4-2.3H87.8z"/>
		<path class="st1" d="M109,64.4c0,0-1,2.6-3.3,3.6c-0.1,0.1-0.6-0.3-0.7-0.3c-0.1,0-0.6,0.3-0.8,0.3c-0.1,0-0.6-0.2-0.7-0.2
			c-0.1,0-0.4,0.2-0.6,0.2c-0.1,0-0.5-0.2-0.7-0.2c-0.1,0-0.8,0.2-0.8,0.2c-0.1,0-0.6-0.2-0.7-0.2c-0.1,0-0.7,0.3-0.8,0.3
			c-0.1,0-0.6-0.3-0.8-0.3c-0.1,0-0.5,0.2-0.7,0.2c-0.1,0-0.6-0.2-0.7-0.2c-0.1,0-0.8,0.3-0.9,0.3c-0.1,0-0.6-0.2-0.8-0.2
			c-0.1,0-0.5,0.2-0.6,0.2c-0.1,0-0.7-0.3-0.9-0.3c-0.1,0-0.6,0.3-0.8,0.3c-0.1,0-0.7-0.2-0.9-0.2c-0.5,0-0.8,0.4-0.9,0.4
			c-0.1,0-0.4-0.2-0.6-0.4c-0.8-0.6-1.5-1.6-1.9-2.2c-0.2-0.4-0.7-1.4-0.7-1.4H109z"/>
		<path class="st1" d="M111.1,63.3v0.5c-0.1-0.2-0.1-0.1-0.2-0.1c-0.3,0-21.5,0-21.6,0c-0.3,0-0.6,0-1-0.1v-0.3H111.1z"/>
		<path class="st1" d="M79.8,62.6c0.4,0,0.7,0.8,1.3,0.8h6.4c0.1,0.1,0.2,0.2,0.2,0.4h-7.4c-0.2,0-1-0.5-1-0.8
			C79.3,62.7,79.8,62.6,79.8,62.6z"/>
		<path class="st1" d="M101.8,61.1h0.2c0.1,0,1.3,0.9,1.9,1.5c-0.1,0.1-0.2,0.2-0.4,0.2c-0.7,0-1.8-1-1.8-1.5
			C101.7,61.2,101.8,61.2,101.8,61.1z"/>
		<path class="st1" d="M99.3,61c0.3,0,0.5,0.9,0.5,1c0,0.5-0.3,0.6-0.6,0.6c-0.5,0-0.5-0.2-0.5-0.4C98.7,62,99,61,99.3,61z"/>
		<path class="st1" d="M100.3,60.9h0.2c0.4,0,1.3,1.2,1.3,1.3c0,0.3-0.3,0.4-0.5,0.4c-0.6,0-1.1-1.1-1.1-1.3
			C100.2,61.2,100.2,61.1,100.3,60.9z"/>
		<path class="st1" d="M97,60.9c0.1,0.1,0.1,0.1,0.1,0.3c0,0.3-1,1.5-1.4,1.5h-0.7c-0.1-0.1-0.1,0-0.1-0.2
			C95,62.4,96.5,61.1,97,60.9z"/>
		<path class="st1" d="M98.3,60.8c0.2,0,0.2,0.2,0.2,0.3c0,0.4-0.6,1.6-1.1,1.6c-0.2,0-0.4-0.1-0.4-0.4C97,62,97.7,60.8,98.3,60.8z"
			/>
		<path class="st1" d="M97.3,59.7l4.5,0c0,0.1,0.2,0.2,0.2,0.3c0,0.1-0.2,0.1-0.4,0.2l-4.6,0c-0.1-0.1-0.1-0.1-0.2-0.1v-0.2
			C96.9,59.8,97.1,59.8,97.3,59.7z"/>
		<path class="st1" d="M114.2,59.4c1.7,0,3.8,1,3.8,2.9c0,2.3-3.3,4.2-5.3,4.6c-0.8,0.1-1.7,0.5-2.5,0.6c-1.4,0.2-3,0.6-4.4,1.7
			c-0.1-0.1-0.1-0.1-0.1-0.2c0-0.8,2.5-1.8,2.6-1.8c1.9-0.6,4.1-1,6-1.9c1.7-0.8,2.5-1.8,2.5-3.1c0-1.3-1.6-1.9-2.5-1.9
			c-0.5,0-2,0.4-2.3,0.8c0.1,0.1,0.2,0.1,0.3,0.2c0.1,0.1,0.4,0.5,0.4,0.6c0,0.6-0.6,0.9-1.1,0.9c-0.6,0-1.3-0.3-1.3-1
			c0-0.1,0.2-0.5,0.3-0.7C111.4,59.9,113,59.4,114.2,59.4z"/>
		<path class="st1" d="M99.3,57.2c0.4,0,1,0.3,1,0.8c0,0.6-0.5,0.9-1,0.9c-0.5,0-0.9-0.5-0.9-0.9C98.5,57.5,98.8,57.2,99.3,57.2z"/>
		<path class="st1" d="M92.4,55.6c-0.4,0.7-1.2,0.6-1.8,1c-0.5,0.4-0.1,1.3-0.9,1.3c-0.1,0-1.2-0.2-1.4-0.2c-0.3,0-0.4-0.1-0.7,0.4
			c0.4,0.6,1,0.9,1,1.5c0,0.1-0.1,0.2-0.1,0.4c0,0.4-1.2,0.8-1.6,0.9l-1.7-0.1c-0.3-0.1-1,0.5-1.2,0.8c-0.3-0.2-0.6-0.7-0.6-1
			c0-0.6,0.9-0.4,1.1-0.4h0.9c0.5,0,1.1-0.7,1.1-1c0-0.9-1.6-0.9-1.6-1.9c0-0.7,1-0.9,1.4-0.9c0.1,0,2.1,0.4,2.2,0.4
			c0.6,0,1-0.5,1.5-0.8c0.4-0.2,0.9-0.3,1.3-0.3C92.2,55.6,92.3,55.6,92.4,55.6z"/>
		<path class="st1" d="M98.9,132.8c0.7,0,1.6,0.4,1.6,1.5c0.1,7.6,0.1,7.7,0.1,7.7c0,0.3,0.1,0.6,0.1,0.8c0,0.1,0.2,0.7,0.3,1
			c0.4,1.4,1.6,2.4,2.9,2.4c3.4,0,10.2-4.7,12.7-7.2c-0.3-0.3-0.9-0.9-1.1-1.1c-0.1-0.1-0.7-0.5-0.7-0.8c0-0.3,3.9-2.4,4-2.5
			c0.5-0.4,1.1-0.7,1.5-1.1c0.3-0.2,1.3-1,1.7-1c0.4,0,0,1.8,0.1,1.8c-0.1,0.6-0.3,1.8-0.3,1.9c0,0.1-0.3,1.2-0.3,1.4
			c0,0.8-0.8,2.5-1.1,3.1c-0.1,0.2-0.2,0.3-0.3,0.4c-0.7,0-2-1.3-2.2-1.3c-0.3,0-3.2,2.8-4.4,3.8c-0.7,0.7-1.6,1.2-2.2,1.8
			c-1.4,1.3-9.8,7.8-12.7,7.8c-2.9,0-11.3-6.5-12.7-7.8c-0.6-0.6-1.5-1.1-2.2-1.8c-1.1-1.1-4-3.8-4.4-3.8c-0.2,0-1.5,1.2-2.2,1.3
			c-0.1-0.1-0.2-0.2-0.3-0.4c-0.3-0.6-1.1-2.3-1.1-3.1c0-0.1-0.3-1.2-0.3-1.4c0-0.1-0.2-1.3-0.3-1.9c0.1-0.1-0.3-1.8,0.1-1.8
			c0.4,0,1.4,0.8,1.7,1c0.4,0.3,1,0.7,1.5,1.1c0.2,0.1,4,2.3,4,2.5c0,0.3-0.6,0.8-0.7,0.8c-0.2,0.1-0.8,0.8-1.1,1.1
			c2.6,2.5,9.3,7.2,12.7,7.2c1.2,0,2.5-0.9,2.9-2.4c0.1-0.3,0.3-0.9,0.3-1c0-0.1,0.1-0.5,0.1-0.8c0-0.1,0-0.1,0.1-7.7
			c0-1,0.8-1.5,1.6-1.5H98.9z"/>
		<path class="st1" d="M77.4,108.6l0,17.6c0,0,1.8,1.4,8.7-0.4c0,0,6.9-2.6,12.2,0.6v-18.1c0,0-3.4-3-11.8-0.8c0,0-5.4,1.7-7.7,1.2
			C76.9,108.2,77.4,108.6,77.4,108.6z"/>
		<path class="st1" d="M98.1,131.3c-0.2,0.1-0.4,0.1-0.6,0c0-0.1-0.1-0.1-0.1-0.2c0-0.4,0.5-2,0.6-2.1
			C98.1,129.2,98.2,130.4,98.1,131.3z"/>
		<path class="st1" d="M98.6,128.9c0,0.2,0.2,0.3,0.2,0.5c0.1,0.5,0.1,1.1,0.1,1.2v0.7l-0.5,0c0-0.3-0.1-0.4-0.1-0.4
			c0-0.1,0,0,0-0.1v-1.3c0-0.1,0.1-0.1,0-0.1C98.4,129.3,98.5,129.1,98.6,128.9z"/>
		<path class="st1" d="M97.6,128.8v0.4c0,0.1-0.3,1.2-0.5,1.7h-0.3c-0.1-0.1-0.1-0.2-0.1-0.3C96.7,130.4,97.5,128.9,97.6,128.8z"/>
		<path class="st1" d="M97.3,128.6c-0.2,0.6-0.5,1.2-0.8,1.8c-0.1,0,0,0.1-0.2,0.1c-0.1,0-0.3-0.1-0.3-0.3
			C96,130,97.2,128.7,97.3,128.6z"/>
		<path class="st1" d="M96.9,128.2l-0.1,0.2c-0.3,0.4-0.7,0.9-1,1.4c-0.3-0.1-0.3-0.3-0.3-0.3C95.5,129.3,96.6,128.3,96.9,128.2z"/>
		<path class="st1" d="M119.9,108.6l0,17.6c0,0-1.8,1.4-8.7-0.4c0,0-6.8-2.6-12.2,0.6v-18.1c0,0,3.4-3,11.8-0.8c0,0,5.3,1.7,7.7,1.2
			C120.4,108.2,119.9,108.6,119.9,108.6z"/>
		<path class="st1" d="M99.2,131.3c0.2,0.1,0.4,0.1,0.6,0c0-0.1,0.1-0.1,0.1-0.2c0-0.4-0.5-2-0.6-2.1
			C99.2,129.2,99.1,130.4,99.2,131.3z"/>
		<path class="st1" d="M99.7,128.8v0.4c0,0.1,0.3,1.2,0.5,1.7h0.3c0.1-0.1,0.1-0.2,0.1-0.3C100.6,130.4,99.7,128.9,99.7,128.8z"/>
		<path class="st1" d="M100,128.6c0.2,0.6,0.5,1.2,0.8,1.8c0.1,0,0,0.1,0.2,0.1c0.1,0,0.3-0.1,0.3-0.3
			C101.3,130,100.1,128.7,100,128.6z"/>
		<path class="st1" d="M120.7,109v18.2l-0.2-0.3l-0.3-0.4v-17.9L120.7,109z M121.4,109.3v18.8l-0.5-0.7V109L121.4,109.3z M122,109.7
			v19.1l-0.1-0.2l-0.3-0.4v-18.7L122,109.7z"/>
		<path class="st1" d="M100.4,128.2l0.1,0.2c0.3,0.4,0.7,0.9,1,1.4c0.3-0.1,0.3-0.3,0.3-0.3C101.8,129.3,100.7,128.3,100.4,128.2z"
			/>
		<path class="st1" d="M122.6,110.3h0.7v20l-21,0l0-0.1c-0.7,1.2-2,2-3.5,2.1l-0.1,0c0,0-0.1,0-0.1,0c-1.5-0.1-2.8-0.9-3.5-2.1
			l0,0.1H74v-20h0.7v19.3h20.4l-0.1,0.4c0.7,1.3,2,2.1,3.6,2.2c1.5,0,2.9-0.9,3.6-2.2l-0.1-0.4h20.4V110.3z"/>
		<g>
			<ellipse class="st1" cx="84" cy="62.4" rx="0.4" ry="0.4"/>
		</g>
		<path class="st1" d="M105,68.5c-0.4,0-1.1,0.6-1,1h0.3c0.2,0,1-0.6,1-0.7C105.3,68.6,105.1,68.5,105,68.5z"/>
		<path class="st1" d="M98.6,107.6l-1.7-1.1c0-0.4,0-1,0-1.5c0-1,0.8-1.5,1.6-1.5h0.4c0.7,0,1.6,0.4,1.6,1.5c0,0.4,0,1.1,0,1.5
			L98.6,107.6z"/>
		<polygon class="st1" points="86.6,97.2 89.2,97.2 89.2,100.9 86.6,100.5 		"/>
		<polygon class="st1" points="82.2,97.6 86.1,97.6 86.1,100.1 82.2,99.5 		"/>
		<polygon class="st1" points="81.9,97.6 81.1,98.2 81.1,100.2 81.9,99.7 		"/>
		<path d="M87.7,97.5c0.1,0,0.1,0,0.2,0c0.4,0,0.6,0.3,0.6,0.6c0,0.3-0.3,0.6-0.6,0.6c-0.1,0-0.4-0.2-0.5-0.3c0.3-0.1,0.6,0,0.6-0.4
			C88,97.8,87.9,97.6,87.7,97.5z"/>
		<path d="M87.7,99.1c0.1,0,0.1,0,0.2,0c0.4,0,0.6,0.3,0.6,0.6c0,0.3-0.3,0.6-0.6,0.6c-0.1,0-0.4-0.2-0.5-0.3c0.3-0.1,0.6,0,0.6-0.4
			C88,99.4,87.9,99.2,87.7,99.1z"/>
		<polygon class="st1" points="82.1,99.8 86,100.4 86,101 81.4,100.3 		"/>
		<polygon class="st1" points="86.6,100.8 89.2,101.3 89.2,101.8 86.6,101.3 		"/>
		<polygon class="st1" points="89.7,101.2 98.6,102.8 98.6,103.2 89.7,101.7 		"/>
		<polygon class="st1" points="110.6,97.2 108.1,97.2 108.1,100.9 110.6,100.5 		"/>
		<polygon class="st1" points="115,97.6 111.2,97.6 111.2,100.1 115,99.5 		"/>
		<path d="M109,97.5c0.1,0,0.1,0,0.2,0c0.4,0,0.6,0.3,0.6,0.6c0,0.3-0.3,0.6-0.6,0.6c-0.1,0-0.4-0.2-0.5-0.3c0.3-0.1,0.6,0,0.6-0.4
			C109.2,97.8,109.1,97.6,109,97.5z"/>
		<path d="M109,99.1c0.1,0,0.1,0,0.2,0c0.4,0,0.6,0.3,0.6,0.6c0,0.3-0.3,0.6-0.6,0.6c-0.1,0-0.4-0.2-0.5-0.3c0.3-0.1,0.6,0,0.6-0.4
			C109.2,99.4,109.1,99.2,109,99.1z"/>
		<polygon class="st1" points="115,99.8 111.2,100.4 111.2,101 114.7,100.4 		"/>
		<polygon class="st1" points="110.6,100.8 108.1,101.3 108.1,101.7 110.6,101.3 		"/>
		<polygon class="st1" points="98.6,102.3 89.7,100.7 89.7,97.6 98.6,97.6 107.5,97.6 107.5,100.7 		"/>
		<polygon class="st1" points="107.6,101.2 98.6,102.8 98.6,103.2 107.6,101.7 		"/>
		<g>
			<g>
				<path d="M102.4,112.8c1,0,1.8,0.5,1.8,1.3c0,0.4-0.2,0.7-0.6,1c0.3,0.4,0.9,0.8,0.9,1.4c0,1.2-1.3,1.4-2.1,1.4
					c-0.1,0-0.6,0-1.7-0.1c-0.1-0.1-0.1-0.1-0.2-0.1c0.1-0.2,0.3-0.4,0.4-0.6v-3.8c-0.1-0.2-0.3-0.3-0.3-0.5
					C100.7,112.9,100.9,112.8,102.4,112.8z"/>
				<path d="M107.4,113.2c1.5,0,2.1,1.3,2.1,2.4c0,1.3-0.8,2.6-2.2,2.6c-1.4,0-2.2-1.3-2.2-2.4C105,114.7,105.8,113.2,107.4,113.2z"
					/>
				<path d="M110.2,113.4c1.9,0,1.3,1.3,2.7,2.8c0.3-0.4,0.3-1,0.3-1.5c0-0.4,0-0.4-0.4-0.8c0.1,0,0.1-0.1,0.2-0.1s0.8,0.1,1.2,0.2
					c-0.8,0.4-0.6,1.3-0.6,2c-0.1,1.2-0.1,2-0.3,2.7c-1.1-1.2-1.5-2.4-2.3-3.6c0,0-0.1,0.1-0.1,0.2c-0.1,0.7-0.3,2-0.3,2.1
					c0,0.3,0.3,0.6,0.5,1c-0.4,0.1-0.9,0.1-1.4-0.1c0,0,0-0.1,0-0.1c0.6-0.3,0.5-1.2,0.5-1.7c0-0.1,0.3-2,0.3-2.1
					c0-0.2-0.2-0.5-0.5-0.8C110,113.4,110.1,113.4,110.2,113.4z"/>
				<path d="M115.4,114c0.5,0.1,1.4,0.1,1.5,0.1c0,0,0.1,0,0.1,0.1c0,0.1-0.2,0.2-0.2,0.4c0,0.1,0.3,1.1,0.6,1.7
					c0.3,0.7,0.4,1.7,1.1,2.3v0.2c-0.6,0.1-1.2,0.1-1.8,0c0,0-0.1,0-0.1-0.1c0-0.1,0.2-0.3,0.2-0.5c0-0.3-0.3-0.9-0.7-0.9h-1
					c-0.1,0.1-0.4,0.7-0.4,0.9c0,0.1,0.1,0.3,0.2,0.5c-0.4,0.1-0.9,0-1.3-0.1c0.1-0.2,0.4-0.3,0.6-0.6c0.5-1.1,1.2-3.3,1.2-3.4
					c0-0.1-0.2-0.3-0.2-0.5C115.3,114,115.3,114.1,115.4,114z"/>
				<path class="st1" d="M107.5,113.6c0.6,0,0.7,0.6,0.8,1.2c-0.1,0.7-0.1,0.7,0,0.8c0,0.1-0.2,2.3-1.2,2.3c-0.9,0-1-1.4-1-1.7
					C106.2,115.6,106.4,113.6,107.5,113.6z"/>
				<path class="st1" d="M115.8,115.6c0.1,0.1,0.6,0.9,0.6,1.1c0,0.1-0.1,0.1-0.1,0.2h-0.7c-0.1-0.1-0.1-0.1-0.1-0.3
					C115.4,116.4,115.6,115.9,115.8,115.6z"/>
				<path class="st1" d="M102.3,115.5c0.7,0,1,0.5,1,1c0,0.5-0.4,1.1-1,1.1c-0.1,0-0.3-0.1-0.5-0.2v-1.5
					C101.8,115.6,102,115.5,102.3,115.5z"/>
				<path class="st1" d="M102.4,113.3c0.5,0,0.8,0.2,0.8,0.8c0,0.6-0.3,0.9-0.9,0.9c-0.1,0-0.3-0.1-0.4-0.2c0-1.1,0.1-1.3,0.1-1.5
					C102.1,113.3,102.2,113.3,102.4,113.3z"/>
			</g>
			<g>
				<path d="M94,112.8h1.2c0.1,0.1,0.1,1.1,0,1.3c-0.2,0-0.4-0.6-0.7-0.8c-0.1,0-0.2-0.1-0.4-0.1c-0.3,0-0.8,0.1-0.8,0.5
					c0,1.1,2.4,1.1,2.4,2.8c0,0.8-0.6,1.4-1.5,1.4c-0.1,0-1-0.2-1.5-0.2c-0.2-0.2-0.2-0.7-0.2-1c0-0.1,0.1-0.3,0.1-0.5
					c0.4,0.6,0.9,1.3,1.6,1.3c0.3,0,0.6-0.2,0.6-0.6c0-1-2.4-1.2-2.4-2.8C92.4,113.2,93.2,112.8,94,112.8z"/>
				<path d="M90.8,113.3c0.1,0,0.2,0.1,0.3,0.2v1.2c-0.2-0.2-0.3-0.5-0.6-0.7c-0.2-0.2-0.6-0.2-0.7-0.2c-0.1,0-0.8,0.1-0.9,0.4
					c0.1,0.7,0,0.7,0,0.8c0.1,0.1,0,0.7,0.3,0.7c0.4,0,0.5-0.4,0.8-0.6c0.1,0.1,0.1,0.2,0.1,0.4c-0.1,0.1-0.1,0.1,0,1
					c-0.3-0.2-0.5-0.4-0.7-0.4c-0.3,0-0.3,0.2-0.3,0.4c0.1,0.7,0,0.8,0,0.8c0.1,0.2,0,0.5,0.1,0.7c0.1,0.2,0.3,0.1,0.5,0.1
					c0.7,0,1.3-0.2,1.6-1.1c0.1,0.1,0.1,0.1,0.1,0.3c0,0.1-0.1,0.6-0.2,1c-0.9,0.2-2.6,0.5-2.7,0.5h-0.8c0-0.1,0.2-0.3,0.3-0.4
					c0.1-0.2,0.1-0.4,0.1-0.6l-0.2-3.1c0-0.3-0.3-0.7-0.5-0.7c0-0.1,0.1-0.1,0.1-0.2C88.6,113.5,90.7,113.3,90.8,113.3z"/>
				<path d="M85.3,113.9c1,0,1.7,0.5,1.7,1.5c0,1.1-0.6,1.6-2.2,1.6c-0.2,0.1-0.1,0.4-0.1,0.5c0,0.1,0.1,0.8,0.2,1.1
					c0.1,0.1,0.3,0.2,0.5,0.3c-0.2,0.3-0.8,0.2-1.1,0.3c-0.8,0-0.9,0-1-0.1c0-0.1,0.2-0.2,0.2-0.3c0.1-0.3,0.1-0.7,0.1-0.8l-0.1-3.1
					c-0.1-0.2-0.1-0.4-0.3-0.6C83.8,114,84.7,113.9,85.3,113.9z"/>
				<path d="M80.6,114.1c0.1,0,0.3,0.1,1.5,0.1c-0.1,0.2,0,0.5,0,0.7c0,0.1-0.1,0.4-0.1,0.6c-0.2-0.2-0.3-0.5-0.5-0.7
					c-0.2-0.2-0.6-0.3-0.8-0.3c-0.3,0-0.7,0.1-0.7,0.5c0,0.6,2,1.5,1.8,1.7c-0.1,0.1,0.2,0.2,0.3,0.3c0.1,0.1,0.2,0.3,0.2,0.5
					c0,0.1,0.2,0,0.2,0.2c0,0.1-0.1-0.1-0.1,0.1c0,0.1,0.1,0.1,0.1,0.2c0,0.1-0.1,0.1-0.1,0.2c0,0.1,0,0,0.1,0
					c-0.2,0.3-0.3,0.6-0.6,0.8c-0.2,0.2-0.7,0.3-0.9,0.3c-0.1,0-0.7-0.2-1.1-0.3c-0.2,0-0.4,0-0.6,0c0-0.1-0.1-0.2-0.1-1.1
					c0-0.1,0.1-0.3,0.1-0.4c0.4,0.6,0.7,1.3,1.5,1.3c0.3,0,0.7-0.3,0.7-0.6c0-1-2.4-1.1-2.4-2.8C79.3,114.9,79.7,114.1,80.6,114.1z"
					/>
				<path class="st1" d="M85.1,114.4c0.7,0,0.9,0.7,0.9,1.1c0,0.6-0.3,1.1-0.9,1.1c-0.1,0-0.4,0-0.4-0.4c0-0.8-0.1-1.1-0.1-1.3
					C84.6,114.5,84.6,114.4,85.1,114.4z"/>
			</g>
		</g>
		<path class="st0" d="M98.5,162.9c-9.3-3.9-40.9-20.1-40.9-57.3v-3.9c2.2-0.7,7.6-2.3,9.8-2.9c0,0,3.3-1.5,9.2,0.9
			c0,0,9.4,3.9,19.3,4.8c0.3,0.1,0.2,1.8,0.2,2l-0.4-0.1c-0.1,0-0.3-0.1-0.4-0.1c-1.2-0.1-2.1-0.2-3.4-0.2c-2,0-2.1,0.2-4.8,0.6
			c-0.4,0.1-1.7,0.4-2.2,0.5c-1.5,0.4-3.1,0.9-4.7,0.9c-0.1,0-1.5-0.2-2-0.3c-0.6-0.1-1,0.1-1.2,0.1c-0.3,0-2.1,1.5-2.6,1.8
			c-0.3,0.1-1.1-0.2-1.1,0.3l0,20.7h21.2c0.2,0,1.4,1.9,1.4,1.9v9.4c0,0.1-0.3,1-0.3,1.1c0,0.1-0.5,1.1-0.9,1.6
			c-0.6,0.7-1.2,0.7-1.8,0.7c-2.9,0-9.3-4.4-11.3-6.6c0,0,1.5-1.3,1.5-1.7c0-0.6-1.5-1.2-1.7-1.3c-0.2-0.1-0.5-0.3-0.8-0.5
			c-0.7-0.4-1.5-0.8-2.2-1.3c-0.5-0.3-2.6-2.1-3.4-2.1c-0.6,0-0.8,0.8-0.8,1l0.1,2.2c0,0.1,0.3,1.5,0.4,2.2c0.2,0.9,0.5,1.8,0.8,2.8
			c0,0.1,0.8,1.8,1.3,1.8c0,0,2.2-1.3,2.3-1.3c0.3,0,1.6,1.6,2.1,2c0.9,0.8,1.8,1.8,2.8,2.7c1.5,1.2,3.1,2.3,4.6,3.5
			c0.6,0.4,1.1,0.9,1.6,1.2c0.8,0.6,1.6,1.1,2.5,1.7c0.4,0.2,0.9,0.4,1.3,0.6c1.1,0.7,2.8,1.8,4.1,1.8h0.9c1.3,0,3-1.1,4.1-1.8
			c0.4-0.2,0.9-0.4,1.3-0.6c0.9-0.5,1.8-1.1,2.5-1.7c0.5-0.4,1.1-0.8,1.6-1.2c1.5-1.1,3.1-2.2,4.6-3.5c1-0.9,1.9-1.9,2.8-2.7
			c0.4-0.4,1.8-2,2.1-2c0.1,0,2.3,1.3,2.3,1.3c0.5,0,1.3-1.7,1.3-1.8c0.3-0.9,0.6-1.9,0.8-2.8c0.1-0.7,0.4-2.1,0.4-2.2v-2.4
			c0-0.2-0.3-0.9-0.8-0.9c-0.8,0-2.9,1.9-3.4,2.2c-0.7,0.5-1.5,0.9-2.2,1.3c-0.3,0.2-0.6,0.4-0.8,0.5c-0.2,0.1-1.7,0.7-1.7,1.3
			c0,0.4,1.5,1.7,1.5,1.7c-2,2.2-8.4,6.6-11.3,6.6c-0.5,0-1.2,0-1.8-0.7c-0.4-0.4-0.9-1.4-0.9-1.6c0-0.1-0.3-1-0.3-1.1v-9.4
			c0,0,1.2-1.9,1.5-1.9H124V110c0-0.5-1-0.3-1.3-0.5c-0.5-0.3-2.1-1.7-2.4-1.7c-0.1,0-1,0.1-1.6,0.2c-0.5,0.1-1.2,0.4-1.9,0.2
			c-1.5-0.4-3.1-0.1-4.6-0.9c-0.4-0.2-1.6-0.5-2-0.6c-2.6-0.4-2.6-0.7-4.6-0.7c-1.2,0-2.2-0.1-3.4,0.1c-0.2,0-0.4,0.1-0.5,0.1
			l-0.3,0.1c0-0.3-0.1-1.7,0.1-1.8c9.9-0.9,19.3-4.8,19.3-4.8c5.9-2.4,9.2-0.9,9.2-0.9c2.3,0.6,7.6,2.3,9.3,2.9v3.8
			C139.4,142.8,107.8,159,98.5,162.9z"/>
		<path class="st1" d="M75.7,128.3l-0.4,0.6V110l0.4-0.3V128.3z M77.1,108.7v17.6l-0.5,0.7v-18L77.1,108.7z M76.4,109.2v18.1
			l-0.5,0.7v-18.4L76.4,109.2z"/>
		<path class="st1" d="M76.4,128.5c0.1,0,0.2,0.1,0.3,0.1c0.3,0.1,0.7,0.2,1.2,0.3c1.3,0.2,3.3,0.4,6.1,0l1.5-0.3l2.9-0.7
			c0,0,1.1-0.3,2.6-0.4c1.5-0.1,3.3,0.1,4.8,1l-0.1,0.1c-1.4-0.9-3.2-1.1-4.7-1c-0.9,0.1-1.7,0.2-2.1,0.3c0.5-0.1,1.3-0.2,2.3-0.2
			c1.4,0,3.1,0.2,4.4,1l-0.1,0.1c-1.2-0.8-2.9-1-4.3-1c-1.5,0-2.7,0.3-2.7,0.3l-3,0.6l-1.5,0.4c-2.8,0.4-4.8,0.2-6.1,0
			c-0.5-0.1-0.9-0.2-1.2-0.3c-0.1,0-0.2-0.1-0.3-0.1L76.4,128.5z M77.5,126.9c0.1,0,0.1,0,0.2,0.1c1.9,0.7,4.4,0.5,6.3,0l4.3-1.1
			c0,0,1.5-0.4,3.4-0.4c1.8-0.1,4.1,0.2,5.6,1.5l-0.1,0.1c-1.5-1.2-3.7-1.5-5.5-1.4c-1.9,0.1-3.3,0.4-3.3,0.4l-4.3,1.1
			c-2,0.5-4.4,0.7-6.4,0c-0.1,0-0.1-0.1-0.2-0.1L77.5,126.9z M76.9,127.7c0.3,0.1,0.9,0.3,1.7,0.4c1.3,0.2,3.1,0.3,5.3-0.2l4.3-1.1
			c0,0,1.3-0.4,3-0.4c1.7-0.1,3.7,0.2,5.1,1.4l-0.1,0.1c-1.4-1.1-3.4-1.4-5-1.3c-1.7,0.1-3,0.4-3,0.4l-4.3,1.1
			c-2.2,0.5-4.1,0.5-5.4,0.2c-0.8-0.1-1.4-0.3-1.8-0.5L76.9,127.7z"/>
		<path class="st1" d="M120.5,128.7c-1.1,0.4-3.4,0.9-7.3,0.3l-1.5-0.4l-3-0.6c0,0-4.4-0.9-6.9,0.6l-0.1-0.1c1.2-0.8,2.9-1,4.3-0.9
			c1,0,1.8,0.1,2.3,0.2c-1.2-0.3-4.4-0.8-6.7,0.6l-0.1-0.1c1.5-0.9,3.2-1.1,4.7-1c1.5,0.1,2.6,0.4,2.6,0.4l2.9,0.7l1.5,0.3
			c2.8,0.4,4.8,0.2,6.1,0c0.5-0.1,0.9-0.2,1.2-0.3c0.3-0.1,0.5-0.2,0.6-0.2l0.1,0.1C121,128.6,120.8,128.6,120.5,128.7z
			 M119.9,126.9c-0.5,0.2-2.8,1.2-6.7,0.2l-4.3-1.1c0,0-5.8-1.4-8.8,0.9l-0.1-0.1c1.5-1.2,3.7-1.4,5.5-1.4c1.9,0.1,3.4,0.4,3.4,0.4
			l4.3,1.1c1.9,0.5,4.4,0.7,6.3,0C119.6,126.9,119.8,126.8,119.9,126.9L119.9,126.9z M120.6,127.8c-0.5,0.2-3.3,1.3-7.4,0.3
			l-4.3-1.1c0,0-5.1-1.4-8,0.8l-0.1-0.1c1.4-1.1,3.4-1.4,5-1.3c1.7,0.1,3,0.4,3,0.4l4.3,1.1c2.2,0.5,4,0.5,5.3,0.2
			C119.6,128,120.2,127.8,120.6,127.8L120.6,127.8z"/>
	</g>
</g>
</svg>
